<svg xmlns="http://www.w3.org/2000/svg" viewBox="0 0 763.293 241.351"><defs><style>.a{fill:#1e1d1c;}.b{fill:#302f2d;}.c{fill:none;}</style></defs><title>Asset 6</title><path class="a" d="M30.269,14.416a9.421,9.421,0,0,1-4.785,2.752,6.756,6.756,0,0,1,3.992,2.43,6.945,6.945,0,0,1,1.413,4.362,10.286,10.286,0,0,1-.149,1.686,10.56,10.56,0,0,1-4.264,7.065,15.243,15.243,0,0,1-9.123,2.5H0L6.148.112H23.1q4.76,0,7.338,1.86a6.221,6.221,0,0,1,2.579,5.379,12.445,12.445,0,0,1-.149,1.835A10.149,10.149,0,0,1,30.269,14.416Zm-9.148,9q0-2.478-3.322-2.479H12.3l-1.141,6.445h5.5q3.867,0,4.363-3.173A6.063,6.063,0,0,0,21.121,23.415Zm1.438-12.346a5.93,5.93,0,0,0,.1-.842q0-2.331-3.222-2.331H14.577l-1.091,6.248h4.908Q22.014,14.144,22.559,11.069Z"/><path class="a" d="M47.746,7.9,46.7,13.7h11.4l-1.339,7.388H45.415l-1.091,6.346H57.166l-1.389,7.784H33.169L39.317.112H61.926L60.587,7.9Z"/><path class="a" d="M92.666,35.215H82.9l-9.47-19.584L70.007,35.215H60.24L66.388.162h9.767l9.47,19.832L89.046.162h9.767Z"/><path class="b" d="M118.369,31.927a9.484,9.484,0,0,1-3.718,2.6,13.819,13.819,0,0,1-5.3.959q-4.932,0-7.692-2.368a8.242,8.242,0,0,1-2.8-6.517h8.181a2.543,2.543,0,0,0,4.051,2.349,2.2,2.2,0,0,0,.8-1.41,1.855,1.855,0,0,0,.039-.43,2.143,2.143,0,0,0-1-1.86,20.843,20.843,0,0,0-3.268-1.663,28.679,28.679,0,0,1-3.621-1.742,7.669,7.669,0,0,1-2.446-2.329,6.43,6.43,0,0,1-1.018-3.718,12.255,12.255,0,0,1,.2-1.958,7.175,7.175,0,0,1,3.542-4.97,13.237,13.237,0,0,1,7.026-1.8q5.128,0,7.672,2.27a8.36,8.36,0,0,1,2.662,6.3h-8.259a2.547,2.547,0,0,0-.489-1.918A2.083,2.083,0,0,0,111.3,13.1a2.348,2.348,0,0,0-1.605.548,2.072,2.072,0,0,0-.626,1.644,2.014,2.014,0,0,0,.959,1.722,16.658,16.658,0,0,0,3.112,1.527,30.019,30.019,0,0,1,3.66,1.722,7.681,7.681,0,0,1,2.466,2.309,6.424,6.424,0,0,1,1.037,3.758,12.244,12.244,0,0,1-.2,1.957A7.619,7.619,0,0,1,118.369,31.927Z"/><path class="a" d="M154.446,26.638a20.439,20.439,0,0,1-7.462,6.3,22.136,22.136,0,0,1-10.09,2.28H122.913l6.148-35.1h13.981A18.84,18.84,0,0,1,151.4,1.823a12.239,12.239,0,0,1,5.33,4.834,14.036,14.036,0,0,1,1.834,7.239,18.7,18.7,0,0,1-.347,3.668A21.076,21.076,0,0,1,154.446,26.638Zm-9.718-2.479a10.44,10.44,0,0,0,3.62-6.595,10.946,10.946,0,0,0,.2-2.131,6.225,6.225,0,0,0-2.082-5.033,8.726,8.726,0,0,0-5.8-1.76h-3.322l-3.173,17.849h3.322A11.122,11.122,0,0,0,144.728,24.159Z"/><path class="a" d="M174.08,7.9l-1.042,5.8h11.4L183.1,21.085H171.749l-1.091,6.346H183.5l-1.389,7.784H159.5l6.148-35.1H188.26L186.921,7.9Z"/><path class="a" d="M219,35.215h-9.767l-9.47-19.584-3.421,19.584h-9.767L192.722.162h9.767l9.47,19.832L215.38.162h9.767Z"/><path class="b" d="M251.971,14l-1.438,8.082h-22.46L229.511,14Z"/><path class="a" d="M285.394,14.3a9.436,9.436,0,0,1-4.785,2.752,6.757,6.757,0,0,1,3.991,2.429,6.942,6.942,0,0,1,1.414,4.363,10.3,10.3,0,0,1-.149,1.686A10.562,10.562,0,0,1,281.6,32.6a15.243,15.243,0,0,1-9.123,2.5H255.125L261.273,0h16.956q4.76,0,7.338,1.859a6.226,6.226,0,0,1,2.578,5.38A12.3,12.3,0,0,1,288,9.073,10.143,10.143,0,0,1,285.394,14.3Zm-9.148,9q0-2.48-3.322-2.479h-5.5l-1.141,6.445h5.5q3.867,0,4.363-3.173A6.063,6.063,0,0,0,276.246,23.3Zm1.438-12.346a5.94,5.94,0,0,0,.1-.843q0-2.33-3.223-2.33H269.7l-1.09,6.247h4.908Q277.137,14.031,277.684,10.957Z"/><path class="a" d="M302.87,7.784l-1.041,5.8h11.4l-1.339,7.388H300.54l-1.091,6.346h12.842L310.9,35.1H288.294L294.442,0h22.609l-1.339,7.784Z"/><path class="a" d="M347.79,35.1h-9.767l-9.47-19.584L325.132,35.1h-9.767L321.513.049h9.767l9.47,19.833L344.171.049h9.767Z"/><path class="b" d="M373.494,31.815a9.484,9.484,0,0,1-3.718,2.6,13.822,13.822,0,0,1-5.3.959q-4.932,0-7.692-2.368a8.242,8.242,0,0,1-2.8-6.517h8.18a2.543,2.543,0,0,0,4.052,2.348,2.2,2.2,0,0,0,.8-1.409,1.858,1.858,0,0,0,.039-.431,2.145,2.145,0,0,0-1-1.859,20.8,20.8,0,0,0-3.268-1.663,28.75,28.75,0,0,1-3.621-1.742,7.669,7.669,0,0,1-2.446-2.329,6.431,6.431,0,0,1-1.018-3.719,12.255,12.255,0,0,1,.2-1.957,7.177,7.177,0,0,1,3.542-4.971,13.246,13.246,0,0,1,7.026-1.8q5.128,0,7.672,2.271a8.362,8.362,0,0,1,2.662,6.3h-8.259a2.548,2.548,0,0,0-.489-1.918,2.084,2.084,0,0,0-1.625-.627,2.344,2.344,0,0,0-1.6.549,2.068,2.068,0,0,0-.626,1.643,2.016,2.016,0,0,0,.959,1.723,16.668,16.668,0,0,0,3.112,1.526,30.4,30.4,0,0,1,3.66,1.722,7.683,7.683,0,0,1,2.465,2.31,6.417,6.417,0,0,1,1.038,3.758,12.244,12.244,0,0,1-.2,1.957A7.624,7.624,0,0,1,373.494,31.815Z"/><path class="a" d="M409.571,26.525a20.438,20.438,0,0,1-7.462,6.3,22.137,22.137,0,0,1-10.09,2.281H378.038L384.186,0h13.981a18.84,18.84,0,0,1,8.355,1.71,12.245,12.245,0,0,1,5.33,4.834,14.041,14.041,0,0,1,1.834,7.239,18.706,18.706,0,0,1-.347,3.669A21.067,21.067,0,0,1,409.571,26.525Zm-9.718-2.479a10.431,10.431,0,0,0,3.619-6.594,10.87,10.87,0,0,0,.2-2.132,6.223,6.223,0,0,0-2.082-5.032,8.725,8.725,0,0,0-5.8-1.76h-3.321l-3.173,17.849h3.322A11.117,11.117,0,0,0,399.853,24.046Z"/><path class="a" d="M429.2,7.784l-1.041,5.8h11.4l-1.339,7.388H426.874l-1.091,6.346h12.842L437.236,35.1H414.628L420.776,0h22.609l-1.339,7.784Z"/><path class="a" d="M474.124,35.1h-9.767l-9.47-19.584L451.466,35.1H441.7L447.846.049h9.768l9.47,19.833L470.505.049h9.767Z"/><path class="b" d="M506.358,13.882l-1.438,8.082H482.46l1.438-8.082Z"/><path class="a" d="M540.519,14.3a9.436,9.436,0,0,1-4.785,2.752,6.76,6.76,0,0,1,3.991,2.429,6.942,6.942,0,0,1,1.413,4.363,10.187,10.187,0,0,1-.149,1.686,10.557,10.557,0,0,1-4.263,7.065,15.243,15.243,0,0,1-9.123,2.5H510.25L516.4,0h16.956q4.76,0,7.338,1.859a6.226,6.226,0,0,1,2.578,5.38,12.3,12.3,0,0,1-.149,1.834A10.143,10.143,0,0,1,540.519,14.3Zm-9.148,9q0-2.48-3.322-2.479h-5.5l-1.141,6.445h5.5q3.868,0,4.364-3.173A6.063,6.063,0,0,0,531.371,23.3Zm1.438-12.346a5.94,5.94,0,0,0,.1-.843q0-2.33-3.223-2.33h-4.859l-1.09,6.247h4.908Q532.262,14.031,532.809,10.957Z"/><path class="a" d="M558,7.784l-1.041,5.8h11.4l-1.339,7.388H555.665l-1.091,6.346h12.842L566.027,35.1H543.419L549.567,0h22.608l-1.338,7.784Z"/><path class="a" d="M602.915,35.1h-9.767l-9.47-19.584L580.257,35.1h-9.768L576.637.049H586.4l9.471,19.833L599.3.049h9.767Z"/><path class="b" d="M628.619,31.815a9.484,9.484,0,0,1-3.718,2.6,13.822,13.822,0,0,1-5.3.959q-4.932,0-7.692-2.368a8.242,8.242,0,0,1-2.8-6.517h8.18a2.543,2.543,0,0,0,4.052,2.348,2.2,2.2,0,0,0,.8-1.409A1.858,1.858,0,0,0,622.18,27a2.145,2.145,0,0,0-1-1.859,20.848,20.848,0,0,0-3.268-1.663,28.75,28.75,0,0,1-3.621-1.742,7.682,7.682,0,0,1-2.447-2.329,6.438,6.438,0,0,1-1.017-3.719,12.255,12.255,0,0,1,.2-1.957,7.174,7.174,0,0,1,3.542-4.971,13.246,13.246,0,0,1,7.026-1.8q5.127,0,7.672,2.271a8.358,8.358,0,0,1,2.661,6.3h-8.258a2.548,2.548,0,0,0-.49-1.918,2.083,2.083,0,0,0-1.624-.627,2.344,2.344,0,0,0-1.605.549,2.065,2.065,0,0,0-.627,1.643,2.018,2.018,0,0,0,.959,1.723,16.716,16.716,0,0,0,3.113,1.526,30.3,30.3,0,0,1,3.659,1.722,7.675,7.675,0,0,1,2.466,2.31,6.417,6.417,0,0,1,1.038,3.758,12.362,12.362,0,0,1-.2,1.957A7.624,7.624,0,0,1,628.619,31.815Z"/><path class="a" d="M664.7,26.525a20.446,20.446,0,0,1-7.462,6.3,22.137,22.137,0,0,1-10.09,2.281H633.163L639.311,0h13.981a18.843,18.843,0,0,1,8.355,1.71,12.245,12.245,0,0,1,5.33,4.834,14.041,14.041,0,0,1,1.834,7.239,18.706,18.706,0,0,1-.347,3.669A21.067,21.067,0,0,1,664.7,26.525Zm-9.718-2.479a10.431,10.431,0,0,0,3.619-6.594,10.87,10.87,0,0,0,.2-2.132,6.223,6.223,0,0,0-2.082-5.032,8.725,8.725,0,0,0-5.8-1.76H647.59l-3.172,17.849h3.321A11.118,11.118,0,0,0,654.978,24.046Z"/><path class="a" d="M684.329,7.784l-1.041,5.8h11.4l-1.339,7.388H682l-1.091,6.346H693.75L692.361,35.1H669.753L675.9,0h22.608l-1.338,7.784Z"/><path class="a" d="M729.249,35.1h-9.767l-9.47-19.584L706.59,35.1h-9.767L702.971.049h9.767l9.471,19.833L725.63.049H735.4Z"/><path class="b" d="M761.483,13.882l-1.439,8.082h-22.46l1.439-8.082Z"/><path class="a" d="M57.321,54.213a9.421,9.421,0,0,1-4.785,2.752,6.753,6.753,0,0,1,3.991,2.43,6.94,6.94,0,0,1,1.414,4.362,10.286,10.286,0,0,1-.149,1.686,10.56,10.56,0,0,1-4.264,7.065,15.243,15.243,0,0,1-9.123,2.5H27.052l6.148-35.1H50.156q4.76,0,7.338,1.86a6.223,6.223,0,0,1,2.578,5.379,12.31,12.31,0,0,1-.149,1.835A10.14,10.14,0,0,1,57.321,54.213Zm-9.148,9q0-2.478-3.322-2.479h-5.5l-1.141,6.445h5.5q3.867,0,4.363-3.173A6.063,6.063,0,0,0,48.173,63.212Zm1.438-12.346a5.93,5.93,0,0,0,.1-.842q0-2.331-3.223-2.331H41.628l-1.09,6.248h4.908Q49.064,53.941,49.611,50.866Z"/><path class="a" d="M74.8,47.693l-1.041,5.8h11.4l-1.339,7.388H72.467l-1.091,6.346H84.218l-1.389,7.784H60.221l6.148-35.1H88.978l-1.339,7.784Z"/><path class="a" d="M119.717,75.012H109.95l-9.47-19.584L97.059,75.012H87.292L93.44,39.959h9.767l9.47,19.832L116.1,39.959h9.767Z"/><path class="b" d="M145.421,71.724a9.484,9.484,0,0,1-3.718,2.6,13.822,13.822,0,0,1-5.3.959q-4.932,0-7.692-2.368a8.242,8.242,0,0,1-2.8-6.517h8.18a2.544,2.544,0,0,0,4.052,2.349,2.2,2.2,0,0,0,.8-1.41,1.855,1.855,0,0,0,.039-.43,2.145,2.145,0,0,0-1-1.86,20.89,20.89,0,0,0-3.268-1.663,28.612,28.612,0,0,1-3.621-1.742,7.669,7.669,0,0,1-2.446-2.329,6.43,6.43,0,0,1-1.018-3.718,12.255,12.255,0,0,1,.2-1.958,7.175,7.175,0,0,1,3.542-4.97,13.237,13.237,0,0,1,7.026-1.8q5.128,0,7.672,2.27a8.364,8.364,0,0,1,2.662,6.3H140.47a2.551,2.551,0,0,0-.489-1.918,2.083,2.083,0,0,0-1.625-.626,2.348,2.348,0,0,0-1.6.548,2.072,2.072,0,0,0-.626,1.644,2.014,2.014,0,0,0,.959,1.722,16.658,16.658,0,0,0,3.112,1.527,30.091,30.091,0,0,1,3.66,1.722,7.668,7.668,0,0,1,2.465,2.309,6.417,6.417,0,0,1,1.038,3.758,12.244,12.244,0,0,1-.2,1.957A7.619,7.619,0,0,1,145.421,71.724Z"/><path class="a" d="M181.5,66.435a20.447,20.447,0,0,1-7.462,6.3,22.136,22.136,0,0,1-10.09,2.28H149.965l6.148-35.1h13.981a18.84,18.84,0,0,1,8.355,1.711,12.239,12.239,0,0,1,5.33,4.834,14.036,14.036,0,0,1,1.834,7.239,18.7,18.7,0,0,1-.347,3.668A21.076,21.076,0,0,1,181.5,66.435Zm-9.718-2.479a10.434,10.434,0,0,0,3.619-6.6,10.867,10.867,0,0,0,.2-2.131,6.225,6.225,0,0,0-2.082-5.033,8.731,8.731,0,0,0-5.8-1.76h-3.321L161.22,66.286h3.322A11.122,11.122,0,0,0,171.78,63.956Z"/><path class="a" d="M201.131,47.693l-1.041,5.8h11.4l-1.339,7.388H198.8l-1.091,6.346h12.842l-1.389,7.784H186.555l6.148-35.1h22.609l-1.339,7.784Z"/><path class="a" d="M246.051,75.012h-9.767l-9.47-19.584-3.421,19.584h-9.767l6.147-35.053h9.768l9.47,19.832,3.421-19.832H252.2Z"/><path class="b" d="M279.022,53.792l-1.438,8.082H255.125l1.438-8.082Z"/><path class="a" d="M312.446,54.1a9.436,9.436,0,0,1-4.785,2.752,6.76,6.76,0,0,1,3.991,2.429,6.942,6.942,0,0,1,1.413,4.363,10.187,10.187,0,0,1-.149,1.686,10.557,10.557,0,0,1-4.263,7.065,15.243,15.243,0,0,1-9.123,2.5H282.177l6.148-35.1h16.956q4.76,0,7.338,1.859a6.226,6.226,0,0,1,2.578,5.38,12.3,12.3,0,0,1-.149,1.834A10.143,10.143,0,0,1,312.446,54.1Zm-9.148,9q0-2.479-3.322-2.479h-5.5l-1.141,6.445h5.5q3.868,0,4.364-3.173A6.063,6.063,0,0,0,303.3,63.1Zm1.438-12.346a5.94,5.94,0,0,0,.1-.843q0-2.33-3.223-2.33h-4.859l-1.09,6.247h4.908Q304.189,53.828,304.736,50.754Z"/><path class="a" d="M329.922,47.581l-1.041,5.8h11.4l-1.339,7.388H327.592L326.5,67.116h12.842L337.954,74.9H315.346l6.148-35.1H344.1l-1.338,7.784Z"/><path class="a" d="M374.842,74.9h-9.767l-9.47-19.584L352.184,74.9h-9.768l6.148-35.054h9.767L367.8,59.679l3.421-19.833h9.767Z"/><path class="b" d="M400.546,71.612a9.484,9.484,0,0,1-3.718,2.6,13.822,13.822,0,0,1-5.3.959q-4.932,0-7.692-2.368a8.242,8.242,0,0,1-2.8-6.517h8.18a2.543,2.543,0,0,0,4.052,2.348,2.2,2.2,0,0,0,.8-1.409,1.858,1.858,0,0,0,.039-.431,2.145,2.145,0,0,0-1-1.859,20.848,20.848,0,0,0-3.268-1.663,28.75,28.75,0,0,1-3.621-1.742,7.682,7.682,0,0,1-2.447-2.329,6.438,6.438,0,0,1-1.017-3.719,12.255,12.255,0,0,1,.2-1.957,7.174,7.174,0,0,1,3.542-4.971,13.246,13.246,0,0,1,7.026-1.8q5.127,0,7.672,2.271a8.358,8.358,0,0,1,2.661,6.3H395.6a2.548,2.548,0,0,0-.49-1.918,2.083,2.083,0,0,0-1.624-.627,2.344,2.344,0,0,0-1.605.549,2.065,2.065,0,0,0-.627,1.643,2.018,2.018,0,0,0,.959,1.723,16.716,16.716,0,0,0,3.113,1.526,30.3,30.3,0,0,1,3.659,1.722,7.675,7.675,0,0,1,2.466,2.31,6.417,6.417,0,0,1,1.038,3.758,12.362,12.362,0,0,1-.2,1.957A7.624,7.624,0,0,1,400.546,71.612Z"/><path class="a" d="M436.623,66.322a20.446,20.446,0,0,1-7.462,6.3,22.137,22.137,0,0,1-10.09,2.281H405.09l6.148-35.1h13.981a18.843,18.843,0,0,1,8.355,1.71,12.245,12.245,0,0,1,5.33,4.834,14.041,14.041,0,0,1,1.834,7.239,18.706,18.706,0,0,1-.347,3.669A21.079,21.079,0,0,1,436.623,66.322Zm-9.718-2.479a10.431,10.431,0,0,0,3.619-6.594,10.87,10.87,0,0,0,.2-2.132,6.223,6.223,0,0,0-2.082-5.032,8.725,8.725,0,0,0-5.8-1.76h-3.322l-3.172,17.849h3.321A11.118,11.118,0,0,0,426.905,63.843Z"/><path class="a" d="M456.256,47.581l-1.041,5.8h11.4L465.28,60.77H453.926l-1.091,6.346h12.842L464.288,74.9H441.68l6.148-35.1h22.608L469.1,47.581Z"/><path class="a" d="M501.176,74.9h-9.767l-9.47-19.584L478.517,74.9H468.75L474.9,39.846h9.767l9.471,19.833,3.421-19.833h9.767Z"/><path class="b" d="M533.41,53.679l-1.438,8.082h-22.46l1.438-8.082Z"/><path class="a" d="M567.571,54.1a9.44,9.44,0,0,1-4.785,2.752,6.76,6.76,0,0,1,3.991,2.429,6.942,6.942,0,0,1,1.413,4.363,10.3,10.3,0,0,1-.149,1.686,10.561,10.561,0,0,1-4.263,7.065,15.243,15.243,0,0,1-9.123,2.5H537.3l6.147-35.1h16.957q4.76,0,7.338,1.859a6.226,6.226,0,0,1,2.578,5.38,12.3,12.3,0,0,1-.149,1.834A10.143,10.143,0,0,1,567.571,54.1Zm-9.148,9q0-2.479-3.322-2.479h-5.5l-1.14,6.445h5.5q3.868,0,4.363-3.173A6.127,6.127,0,0,0,558.423,63.1Zm1.438-12.346a5.94,5.94,0,0,0,.1-.843q0-2.33-3.223-2.33h-4.859l-1.091,6.247H555.7Q559.314,53.828,559.861,50.754Z"/><path class="a" d="M585.047,47.581l-1.041,5.8h11.4l-1.338,7.388H582.717l-1.091,6.346h12.842L593.079,74.9H570.47l6.148-35.1h22.609l-1.339,7.784Z"/><path class="a" d="M629.967,74.9H620.2L610.73,55.316,607.308,74.9h-9.767l6.148-35.054h9.767l9.471,19.833,3.42-19.833h9.768Z"/><path class="b" d="M655.671,71.612a9.488,9.488,0,0,1-3.719,2.6,13.813,13.813,0,0,1-5.3.959q-4.932,0-7.692-2.368a8.243,8.243,0,0,1-2.8-6.517h8.181a2.248,2.248,0,0,0,2.427,2.857,2.538,2.538,0,0,0,1.624-.509,2.2,2.2,0,0,0,.8-1.409,1.858,1.858,0,0,0,.039-.431,2.145,2.145,0,0,0-1-1.859,20.848,20.848,0,0,0-3.268-1.663,28.839,28.839,0,0,1-3.622-1.742A7.679,7.679,0,0,1,638.9,59.2a6.431,6.431,0,0,1-1.017-3.719,12.355,12.355,0,0,1,.2-1.957,7.179,7.179,0,0,1,3.543-4.971,13.243,13.243,0,0,1,7.026-1.8q5.127,0,7.672,2.271a8.361,8.361,0,0,1,2.661,6.3h-8.259a2.544,2.544,0,0,0-.489-1.918,2.083,2.083,0,0,0-1.624-.627,2.344,2.344,0,0,0-1.605.549,2.065,2.065,0,0,0-.627,1.643,2.018,2.018,0,0,0,.959,1.723,16.684,16.684,0,0,0,3.113,1.526,30.3,30.3,0,0,1,3.659,1.722,7.686,7.686,0,0,1,2.466,2.31,6.424,6.424,0,0,1,1.038,3.758,12.362,12.362,0,0,1-.2,1.957A7.624,7.624,0,0,1,655.671,71.612Z"/><path class="a" d="M691.748,66.322a20.446,20.446,0,0,1-7.462,6.3A22.14,22.14,0,0,1,674.2,74.9H660.215l6.148-35.1h13.981a18.839,18.839,0,0,1,8.354,1.71,12.248,12.248,0,0,1,5.331,4.834,14.041,14.041,0,0,1,1.834,7.239,18.706,18.706,0,0,1-.347,3.669A21.091,21.091,0,0,1,691.748,66.322Zm-9.718-2.479a10.431,10.431,0,0,0,3.619-6.594,10.872,10.872,0,0,0,.2-2.132,6.22,6.22,0,0,0-2.082-5.032,8.721,8.721,0,0,0-5.8-1.76h-3.322l-3.173,17.849h3.322A11.12,11.12,0,0,0,682.03,63.843Z"/><path class="a" d="M711.381,47.581l-1.041,5.8h11.4l-1.338,7.388H709.051l-1.091,6.346H720.8L719.413,74.9H696.8l6.148-35.1h22.609l-1.339,7.784Z"/><path class="a" d="M756.3,74.9h-9.768l-9.469-19.584L733.642,74.9h-9.767l6.148-35.054h9.767l9.47,19.833,3.421-19.833h9.768Z"/><path class="b" d="M23.9,54.066,22.46,62.148H0l1.438-8.082Z"/><path class="a" d="M32.08,94.122A9.421,9.421,0,0,1,27.3,96.874a6.761,6.761,0,0,1,3.991,2.43,6.94,6.94,0,0,1,1.413,4.363,10.3,10.3,0,0,1-.149,1.686,10.563,10.563,0,0,1-4.263,7.065,15.25,15.25,0,0,1-9.123,2.5H1.811l6.147-35.1H24.915q4.76,0,7.338,1.859a6.224,6.224,0,0,1,2.578,5.379,12.31,12.31,0,0,1-.149,1.835A10.14,10.14,0,0,1,32.08,94.122Zm-9.148,9q0-2.478-3.322-2.479h-5.5l-1.14,6.446h5.5q3.868,0,4.364-3.173A6.281,6.281,0,0,0,22.932,103.121ZM24.37,90.776a5.955,5.955,0,0,0,.1-.843q0-2.33-3.223-2.33H16.387L15.3,93.85H20.2Q23.823,93.85,24.37,90.776Z"/><path class="a" d="M49.556,87.6l-1.041,5.8h11.4l-1.338,7.387H47.226l-1.091,6.346H58.977l-1.389,7.785H34.979l6.148-35.1H63.736L62.4,87.6Z"/><path class="a" d="M94.476,114.922H84.708L75.239,95.337l-3.422,19.585H62.05L68.2,79.868h9.767L87.436,99.7l3.42-19.832h9.768Z"/><path class="b" d="M120.18,111.634a9.5,9.5,0,0,1-3.719,2.6,13.832,13.832,0,0,1-5.3.959q-4.932,0-7.692-2.369a8.241,8.241,0,0,1-2.8-6.517h8.181a2.542,2.542,0,0,0,4.051,2.349,2.2,2.2,0,0,0,.8-1.409,1.864,1.864,0,0,0,.039-.431,2.144,2.144,0,0,0-1-1.859,20.921,20.921,0,0,0-3.268-1.664,28.475,28.475,0,0,1-3.621-1.742,7.661,7.661,0,0,1-2.447-2.329,6.437,6.437,0,0,1-1.017-3.718,12.344,12.344,0,0,1,.195-1.957,7.176,7.176,0,0,1,3.543-4.971,13.243,13.243,0,0,1,7.026-1.8q5.127,0,7.672,2.271a8.359,8.359,0,0,1,2.661,6.3h-8.258a2.551,2.551,0,0,0-.49-1.918,2.083,2.083,0,0,0-1.624-.626,2.348,2.348,0,0,0-1.6.548A2.069,2.069,0,0,0,110.883,95a2.017,2.017,0,0,0,.959,1.722,16.674,16.674,0,0,0,3.113,1.527,30,30,0,0,1,3.659,1.722,7.664,7.664,0,0,1,2.466,2.31,6.421,6.421,0,0,1,1.038,3.757,12.351,12.351,0,0,1-.2,1.957A7.627,7.627,0,0,1,120.18,111.634Z"/><path class="a" d="M156.257,106.344a20.446,20.446,0,0,1-7.462,6.3,22.14,22.14,0,0,1-10.09,2.281H124.724l6.148-35.1h13.981a18.839,18.839,0,0,1,8.354,1.71,12.242,12.242,0,0,1,5.331,4.834,14.041,14.041,0,0,1,1.834,7.239,18.706,18.706,0,0,1-.347,3.669A21.084,21.084,0,0,1,156.257,106.344Zm-9.718-2.479a10.431,10.431,0,0,0,3.619-6.594,10.879,10.879,0,0,0,.2-2.132,6.219,6.219,0,0,0-2.082-5.032,8.721,8.721,0,0,0-5.8-1.761h-3.322l-3.173,17.85H139.3A11.126,11.126,0,0,0,146.539,103.865Z"/><path class="a" d="M175.89,87.6l-1.041,5.8h11.4l-1.338,7.387H173.56l-1.091,6.346h12.842l-1.389,7.785H161.313l6.148-35.1H190.07L188.731,87.6Z"/><path class="a" d="M220.81,114.922h-9.768l-9.469-19.585-3.422,19.585h-9.767l6.148-35.054H204.3l9.47,19.832,3.421-19.832h9.768Z"/><path class="b" d="M253.781,93.7l-1.438,8.082h-22.46l1.438-8.082Z"/><path class="a" d="M287.2,94.01a9.418,9.418,0,0,1-4.784,2.752,6.756,6.756,0,0,1,3.991,2.43,6.939,6.939,0,0,1,1.413,4.362,10.286,10.286,0,0,1-.149,1.686,10.56,10.56,0,0,1-4.264,7.065,15.243,15.243,0,0,1-9.123,2.5H256.935l6.148-35.1H280.04q4.76,0,7.338,1.86a6.223,6.223,0,0,1,2.578,5.379,12.31,12.31,0,0,1-.149,1.835A10.141,10.141,0,0,1,287.2,94.01Zm-9.148,9q0-2.478-3.321-2.479h-5.5l-1.14,6.445h5.5q3.868,0,4.363-3.172A6.091,6.091,0,0,0,278.056,103.009Zm1.438-12.346a5.974,5.974,0,0,0,.1-.842q0-2.331-3.223-2.331h-4.859l-1.091,6.248h4.908Q278.949,93.738,279.494,90.663Z"/><path class="a" d="M304.681,87.49l-1.042,5.8h11.4l-1.339,7.388H302.35l-1.09,6.346H314.1l-1.388,7.784H290.1l6.148-35.1h22.609l-1.339,7.784Z"/><path class="a" d="M349.6,114.809h-9.768l-9.469-19.584-3.422,19.584h-9.767l6.148-35.053h9.767l9.47,19.832,3.421-19.832h9.768Z"/><path class="b" d="M375.305,111.521a9.488,9.488,0,0,1-3.719,2.6,13.813,13.813,0,0,1-5.3.959q-4.933,0-7.692-2.368a8.243,8.243,0,0,1-2.8-6.517h8.181a2.543,2.543,0,0,0,4.051,2.349,2.2,2.2,0,0,0,.8-1.41,1.846,1.846,0,0,0,.04-.43,2.145,2.145,0,0,0-1-1.86,20.91,20.91,0,0,0-3.269-1.663,28.747,28.747,0,0,1-3.621-1.742,7.679,7.679,0,0,1-2.446-2.329,6.43,6.43,0,0,1-1.018-3.718,12.255,12.255,0,0,1,.2-1.958,7.174,7.174,0,0,1,3.543-4.97,13.232,13.232,0,0,1,7.026-1.8q5.127,0,7.672,2.27a8.363,8.363,0,0,1,2.661,6.3h-8.259a2.547,2.547,0,0,0-.489-1.918,2.083,2.083,0,0,0-1.624-.626,2.348,2.348,0,0,0-1.605.548,2.069,2.069,0,0,0-.627,1.644,2.014,2.014,0,0,0,.959,1.722,16.691,16.691,0,0,0,3.112,1.527,29.947,29.947,0,0,1,3.66,1.722,7.671,7.671,0,0,1,2.466,2.309,6.424,6.424,0,0,1,1.038,3.758,12.362,12.362,0,0,1-.2,1.957A7.619,7.619,0,0,1,375.305,111.521Z"/><path class="a" d="M411.382,106.232a20.456,20.456,0,0,1-7.462,6.3,22.139,22.139,0,0,1-10.09,2.28H379.848L386,79.706h13.982a18.839,18.839,0,0,1,8.354,1.711,12.239,12.239,0,0,1,5.33,4.834A14.026,14.026,0,0,1,415.5,93.49a18.7,18.7,0,0,1-.347,3.668A21.1,21.1,0,0,1,411.382,106.232Zm-9.718-2.479a10.443,10.443,0,0,0,3.619-6.595,10.869,10.869,0,0,0,.2-2.131,6.225,6.225,0,0,0-2.082-5.033,8.726,8.726,0,0,0-5.8-1.76h-3.322L391.1,106.083h3.322A11.127,11.127,0,0,0,401.664,103.753Z"/><path class="a" d="M431.015,87.49l-1.042,5.8h11.4l-1.339,7.388H428.684l-1.09,6.346h12.841l-1.388,7.784H416.438l6.148-35.1H445.2l-1.339,7.784Z"/><path class="a" d="M475.935,114.809h-9.768L456.7,95.225l-3.422,19.584h-9.767l6.148-35.053h9.767l9.47,19.832,3.421-19.832h9.768Z"/><path class="b" d="M508.168,93.589l-1.437,8.082h-22.46l1.437-8.082Z"/><path class="a" d="M542.329,94.01a9.423,9.423,0,0,1-4.784,2.752,6.756,6.756,0,0,1,3.991,2.43,6.939,6.939,0,0,1,1.413,4.362,10.286,10.286,0,0,1-.149,1.686,10.56,10.56,0,0,1-4.264,7.065,15.243,15.243,0,0,1-9.123,2.5H512.06l6.148-35.1h16.957q4.76,0,7.338,1.86a6.223,6.223,0,0,1,2.578,5.379,12.445,12.445,0,0,1-.149,1.835A10.141,10.141,0,0,1,542.329,94.01Zm-9.148,9q0-2.478-3.321-2.479h-5.5l-1.141,6.445h5.5q3.868,0,4.363-3.172A6.091,6.091,0,0,0,533.181,103.009Zm1.438-12.346a5.93,5.93,0,0,0,.1-.842q0-2.331-3.222-2.331h-4.859l-1.091,6.248h4.908Q534.074,93.738,534.619,90.663Z"/><path class="a" d="M559.806,87.49l-1.042,5.8h11.4l-1.339,7.388H557.475l-1.091,6.346h12.842l-1.388,7.784H545.229l6.148-35.1h22.609l-1.339,7.784Z"/><path class="a" d="M604.726,114.809h-9.768l-9.47-19.584-3.421,19.584H572.3l6.148-35.053h9.767l9.47,19.832,3.421-19.832h9.768Z"/><path class="b" d="M630.429,111.521a9.484,9.484,0,0,1-3.718,2.6,13.819,13.819,0,0,1-5.3.959q-4.932,0-7.692-2.368a8.245,8.245,0,0,1-2.8-6.517H619.1a2.543,2.543,0,0,0,4.051,2.349,2.2,2.2,0,0,0,.8-1.41,1.855,1.855,0,0,0,.039-.43,2.143,2.143,0,0,0-1-1.86,20.843,20.843,0,0,0-3.268-1.663,28.679,28.679,0,0,1-3.621-1.742,7.679,7.679,0,0,1-2.446-2.329,6.43,6.43,0,0,1-1.018-3.718,12.255,12.255,0,0,1,.2-1.958,7.174,7.174,0,0,1,3.543-4.97,13.231,13.231,0,0,1,7.025-1.8q5.129,0,7.672,2.27a8.36,8.36,0,0,1,2.662,6.3h-8.259a2.547,2.547,0,0,0-.489-1.918,2.083,2.083,0,0,0-1.625-.626,2.35,2.35,0,0,0-1.605.548,2.072,2.072,0,0,0-.626,1.644,2.014,2.014,0,0,0,.959,1.722,16.691,16.691,0,0,0,3.112,1.527,29.947,29.947,0,0,1,3.66,1.722,7.681,7.681,0,0,1,2.466,2.309,6.424,6.424,0,0,1,1.037,3.758,12.344,12.344,0,0,1-.195,1.957A7.612,7.612,0,0,1,630.429,111.521Z"/><path class="a" d="M666.506,106.232a20.444,20.444,0,0,1-7.461,6.3,22.142,22.142,0,0,1-10.09,2.28H634.973l6.148-35.1H655.1a18.839,18.839,0,0,1,8.354,1.711,12.239,12.239,0,0,1,5.33,4.834,14.036,14.036,0,0,1,1.835,7.239,18.7,18.7,0,0,1-.347,3.668A21.089,21.089,0,0,1,666.506,106.232Zm-9.717-2.479a10.443,10.443,0,0,0,3.619-6.595,10.869,10.869,0,0,0,.2-2.131,6.225,6.225,0,0,0-2.082-5.033,8.726,8.726,0,0,0-5.8-1.76H649.4l-3.173,17.849h3.322A11.127,11.127,0,0,0,656.789,103.753Z"/><path class="a" d="M686.14,87.49l-1.042,5.8h11.4l-1.339,7.388H683.809l-1.091,6.346H695.56l-1.388,7.784H671.563l6.148-35.1H700.32l-1.339,7.784Z"/><path class="a" d="M731.06,114.809h-9.768l-9.47-19.584L708.4,114.809h-9.767l6.148-35.053h9.767l9.47,19.832,3.421-19.832h9.768Z"/><path class="b" d="M763.293,93.589l-1.438,8.082H739.4l1.438-8.082Z"/><path class="a" d="M57.321,133.975a9.421,9.421,0,0,1-4.785,2.752,6.758,6.758,0,0,1,3.991,2.43,6.94,6.94,0,0,1,1.414,4.363,10.3,10.3,0,0,1-.149,1.686,10.564,10.564,0,0,1-4.264,7.065,15.25,15.25,0,0,1-9.123,2.5H27.052l6.148-35.1H50.156q4.76,0,7.338,1.859a6.224,6.224,0,0,1,2.578,5.38,12.307,12.307,0,0,1-.149,1.834A10.136,10.136,0,0,1,57.321,133.975Zm-9.148,9q0-2.48-3.322-2.479h-5.5l-1.141,6.445h5.5q3.867,0,4.363-3.173A6.1,6.1,0,0,0,48.173,142.975Zm1.438-12.346a5.955,5.955,0,0,0,.1-.843q0-2.329-3.223-2.33H41.628l-1.09,6.247h4.908Q49.064,133.7,49.611,130.629Z"/><path class="a" d="M74.8,127.456l-1.041,5.8h11.4l-1.339,7.387H72.467l-1.091,6.347H84.218l-1.389,7.784H60.221l6.148-35.1H88.978l-1.339,7.784Z"/><path class="a" d="M119.717,154.775H109.95l-9.47-19.585-3.421,19.585H87.292l6.148-35.054h9.767l9.47,19.833,3.421-19.833h9.767Z"/><path class="b" d="M145.421,151.487a9.484,9.484,0,0,1-3.718,2.6,13.841,13.841,0,0,1-5.3.959q-4.932,0-7.692-2.368a8.243,8.243,0,0,1-2.8-6.518h8.18a2.543,2.543,0,0,0,4.052,2.349,2.2,2.2,0,0,0,.8-1.409,1.864,1.864,0,0,0,.039-.431,2.145,2.145,0,0,0-1-1.859,20.874,20.874,0,0,0-3.268-1.664,28.622,28.622,0,0,1-3.621-1.741,7.669,7.669,0,0,1-2.446-2.329,6.433,6.433,0,0,1-1.018-3.719,12.244,12.244,0,0,1,.2-1.957,7.175,7.175,0,0,1,3.542-4.971,13.246,13.246,0,0,1,7.026-1.8q5.128,0,7.672,2.271a8.36,8.36,0,0,1,2.662,6.3H140.47a2.548,2.548,0,0,0-.489-1.918,2.084,2.084,0,0,0-1.625-.627,2.348,2.348,0,0,0-1.6.548,2.072,2.072,0,0,0-.626,1.644,2.016,2.016,0,0,0,.959,1.723A16.731,16.731,0,0,0,140.2,138.1a30.242,30.242,0,0,1,3.66,1.722,7.683,7.683,0,0,1,2.465,2.31,6.415,6.415,0,0,1,1.038,3.758,12.244,12.244,0,0,1-.2,1.957A7.624,7.624,0,0,1,145.421,151.487Z"/><path class="a" d="M181.5,146.2a20.438,20.438,0,0,1-7.462,6.3,22.137,22.137,0,0,1-10.09,2.281H149.965l6.148-35.1h13.981a18.84,18.84,0,0,1,8.355,1.71,12.239,12.239,0,0,1,5.33,4.834,14.041,14.041,0,0,1,1.834,7.239,18.706,18.706,0,0,1-.347,3.669A21.067,21.067,0,0,1,181.5,146.2Zm-9.718-2.479a10.431,10.431,0,0,0,3.619-6.594,10.877,10.877,0,0,0,.2-2.132,6.222,6.222,0,0,0-2.082-5.032,8.725,8.725,0,0,0-5.8-1.76h-3.321l-3.173,17.849h3.322A11.123,11.123,0,0,0,171.78,143.718Z"/><path class="a" d="M201.131,127.456l-1.041,5.8h11.4l-1.339,7.387H198.8l-1.091,6.347h12.842l-1.389,7.784H186.555l6.148-35.1h22.609l-1.339,7.784Z"/><path class="a" d="M246.051,154.775h-9.767l-9.47-19.585-3.421,19.585h-9.767l6.147-35.054h9.768l9.47,19.833,3.421-19.833H252.2Z"/><path class="b" d="M279.022,133.554l-1.438,8.082H255.125l1.438-8.082Z"/><path class="a" d="M312.446,133.863a9.421,9.421,0,0,1-4.785,2.752,6.761,6.761,0,0,1,3.991,2.43,6.94,6.94,0,0,1,1.413,4.363,10.2,10.2,0,0,1-.149,1.686,10.56,10.56,0,0,1-4.263,7.065,15.25,15.25,0,0,1-9.123,2.5H282.177l6.148-35.1h16.956q4.76,0,7.338,1.86A6.224,6.224,0,0,1,315.2,126.8a12.31,12.31,0,0,1-.149,1.835A10.14,10.14,0,0,1,312.446,133.863Zm-9.148,9q0-2.478-3.322-2.479h-5.5l-1.141,6.446h5.5q3.868,0,4.364-3.173A6.091,6.091,0,0,0,303.3,142.862Zm1.438-12.346a5.93,5.93,0,0,0,.1-.842q0-2.329-3.223-2.33h-4.859l-1.09,6.247h4.908Q304.189,133.591,304.736,130.516Z"/><path class="a" d="M329.922,127.344l-1.041,5.8h11.4l-1.339,7.388H327.592l-1.091,6.346h12.842l-1.389,7.784H315.346l6.148-35.1H344.1l-1.338,7.785Z"/><path class="a" d="M374.842,154.662h-9.767l-9.47-19.584-3.421,19.584h-9.768l6.148-35.053h9.767l9.471,19.832,3.421-19.832h9.767Z"/><path class="b" d="M400.546,151.374a9.474,9.474,0,0,1-3.718,2.6,13.822,13.822,0,0,1-5.3.959q-4.932,0-7.692-2.368a8.24,8.24,0,0,1-2.8-6.517h8.18a2.543,2.543,0,0,0,4.052,2.349,2.2,2.2,0,0,0,.8-1.409,1.864,1.864,0,0,0,.039-.431,2.144,2.144,0,0,0-1-1.859,20.921,20.921,0,0,0-3.268-1.664,28.612,28.612,0,0,1-3.621-1.742,7.682,7.682,0,0,1-2.447-2.329,6.437,6.437,0,0,1-1.017-3.718,12.266,12.266,0,0,1,.2-1.958,7.172,7.172,0,0,1,3.542-4.97,13.246,13.246,0,0,1,7.026-1.8q5.127,0,7.672,2.27a8.359,8.359,0,0,1,2.661,6.3H395.6a2.551,2.551,0,0,0-.49-1.918,2.083,2.083,0,0,0-1.624-.626,2.348,2.348,0,0,0-1.605.548,2.069,2.069,0,0,0-.627,1.644,2.017,2.017,0,0,0,.959,1.722,16.706,16.706,0,0,0,3.113,1.527,30,30,0,0,1,3.659,1.722,7.661,7.661,0,0,1,2.466,2.309,6.419,6.419,0,0,1,1.038,3.758,12.351,12.351,0,0,1-.2,1.957A7.619,7.619,0,0,1,400.546,151.374Z"/><path class="a" d="M436.623,146.085a20.446,20.446,0,0,1-7.462,6.3,22.136,22.136,0,0,1-10.09,2.28H405.09l6.148-35.1h13.981a18.843,18.843,0,0,1,8.355,1.711,12.239,12.239,0,0,1,5.33,4.834,14.038,14.038,0,0,1,1.834,7.239,18.713,18.713,0,0,1-.347,3.669A21.084,21.084,0,0,1,436.623,146.085Zm-9.718-2.479a10.431,10.431,0,0,0,3.619-6.594,10.877,10.877,0,0,0,.2-2.132,6.222,6.222,0,0,0-2.082-5.032,8.726,8.726,0,0,0-5.8-1.761h-3.322l-3.172,17.849h3.321A11.123,11.123,0,0,0,426.905,143.606Z"/><path class="a" d="M456.256,127.344l-1.041,5.8h11.4l-1.339,7.388H453.926l-1.091,6.346h12.842l-1.389,7.784H441.68l6.148-35.1h22.608l-1.338,7.785Z"/><path class="a" d="M501.176,154.662h-9.767l-9.47-19.584-3.422,19.584H468.75l6.148-35.053h9.767l9.471,19.832,3.421-19.832h9.767Z"/><path class="b" d="M533.41,133.442l-1.438,8.082h-22.46l1.438-8.082Z"/><path class="a" d="M567.571,133.863a9.425,9.425,0,0,1-4.785,2.752,6.761,6.761,0,0,1,3.991,2.43,6.94,6.94,0,0,1,1.413,4.363,10.305,10.305,0,0,1-.149,1.686,10.563,10.563,0,0,1-4.263,7.065,15.25,15.25,0,0,1-9.123,2.5H537.3l6.147-35.1h16.957q4.76,0,7.338,1.86a6.224,6.224,0,0,1,2.578,5.379,12.31,12.31,0,0,1-.149,1.835A10.14,10.14,0,0,1,567.571,133.863Zm-9.148,9q0-2.478-3.322-2.479h-5.5l-1.14,6.446h5.5q3.868,0,4.363-3.173A6.156,6.156,0,0,0,558.423,142.862Zm1.438-12.346a5.93,5.93,0,0,0,.1-.842q0-2.329-3.223-2.33h-4.859l-1.091,6.247H555.7Q559.314,133.591,559.861,130.516Z"/><path class="a" d="M585.047,127.344l-1.041,5.8h11.4l-1.338,7.388H582.717l-1.091,6.346h12.842l-1.389,7.784H570.47l6.148-35.1h22.609l-1.339,7.785Z"/><path class="a" d="M629.967,154.662H620.2l-9.469-19.584-3.422,19.584h-9.767l6.148-35.053h9.767l9.471,19.832,3.42-19.832h9.768Z"/><path class="b" d="M655.671,151.374a9.478,9.478,0,0,1-3.719,2.6,13.813,13.813,0,0,1-5.3.959q-4.932,0-7.692-2.368a8.241,8.241,0,0,1-2.8-6.517h8.181a2.248,2.248,0,0,0,2.427,2.858,2.544,2.544,0,0,0,1.624-.509,2.2,2.2,0,0,0,.8-1.409,1.864,1.864,0,0,0,.039-.431,2.144,2.144,0,0,0-1-1.859,20.921,20.921,0,0,0-3.268-1.664,28.7,28.7,0,0,1-3.622-1.742,7.679,7.679,0,0,1-2.446-2.329,6.43,6.43,0,0,1-1.017-3.718,12.366,12.366,0,0,1,.2-1.958,7.177,7.177,0,0,1,3.543-4.97,13.243,13.243,0,0,1,7.026-1.8q5.127,0,7.672,2.27a8.363,8.363,0,0,1,2.661,6.3h-8.259a2.547,2.547,0,0,0-.489-1.918,2.083,2.083,0,0,0-1.624-.626A2.348,2.348,0,0,0,647,133.1a2.069,2.069,0,0,0-.627,1.644,2.017,2.017,0,0,0,.959,1.722,16.674,16.674,0,0,0,3.113,1.527,30,30,0,0,1,3.659,1.722,7.671,7.671,0,0,1,2.466,2.309,6.426,6.426,0,0,1,1.038,3.758,12.351,12.351,0,0,1-.2,1.957A7.619,7.619,0,0,1,655.671,151.374Z"/><path class="a" d="M691.748,146.085a20.446,20.446,0,0,1-7.462,6.3,22.139,22.139,0,0,1-10.09,2.28H660.215l6.148-35.1h13.981a18.839,18.839,0,0,1,8.354,1.711,12.242,12.242,0,0,1,5.331,4.834,14.038,14.038,0,0,1,1.834,7.239,18.713,18.713,0,0,1-.347,3.669A21.1,21.1,0,0,1,691.748,146.085Zm-9.718-2.479a10.431,10.431,0,0,0,3.619-6.594,10.879,10.879,0,0,0,.2-2.132,6.219,6.219,0,0,0-2.082-5.032,8.721,8.721,0,0,0-5.8-1.761h-3.322l-3.173,17.849h3.322A11.125,11.125,0,0,0,682.03,143.606Z"/><path class="a" d="M711.381,127.344l-1.041,5.8h11.4l-1.338,7.388H709.051l-1.091,6.346H720.8l-1.388,7.784H696.8l6.148-35.1h22.609l-1.339,7.785Z"/><path class="a" d="M756.3,154.662h-9.768l-9.469-19.584-3.422,19.584h-9.767l6.148-35.053h9.767l9.47,19.832,3.421-19.832h9.768Z"/><path class="b" d="M23.9,133.828,22.46,141.91H0l1.438-8.082Z"/><path class="b" d="M279.022,133.554l-1.438,8.082H255.125l1.438-8.082Z"/><path class="b" d="M533.41,133.442l-1.438,8.082h-22.46l1.438-8.082Z"/><path class="b" d="M23.9,133.828,22.46,141.91H0l1.438-8.082Z"/><path class="a" d="M32.08,174.819a9.421,9.421,0,0,1-4.785,2.752A6.761,6.761,0,0,1,31.286,180a6.94,6.94,0,0,1,1.413,4.363,10.3,10.3,0,0,1-.149,1.686,10.563,10.563,0,0,1-4.263,7.065,15.25,15.25,0,0,1-9.123,2.5H1.811l6.147-35.1H24.915q4.76,0,7.338,1.859a6.224,6.224,0,0,1,2.578,5.379,12.31,12.31,0,0,1-.149,1.835A10.14,10.14,0,0,1,32.08,174.819Zm-9.148,9q0-2.478-3.322-2.479h-5.5l-1.14,6.446h5.5q3.868,0,4.364-3.173A6.281,6.281,0,0,0,22.932,183.818Zm1.438-12.345a5.955,5.955,0,0,0,.1-.843q0-2.329-3.223-2.33H16.387L15.3,174.547H20.2Q23.823,174.547,24.37,171.473Z"/><path class="a" d="M49.556,168.3l-1.041,5.8h11.4l-1.338,7.387H47.226l-1.091,6.346H58.977l-1.389,7.785H34.979l6.148-35.1H63.736L62.4,168.3Z"/><path class="a" d="M94.476,195.619H84.708l-9.469-19.585-3.422,19.585H62.05L68.2,160.565h9.767L87.436,180.4l3.42-19.832h9.768Z"/><path class="b" d="M120.18,192.331a9.5,9.5,0,0,1-3.719,2.6,13.832,13.832,0,0,1-5.3.959q-4.932,0-7.692-2.369a8.241,8.241,0,0,1-2.8-6.517h8.181a2.248,2.248,0,0,0,2.427,2.858,2.544,2.544,0,0,0,1.624-.509,2.2,2.2,0,0,0,.8-1.409,1.864,1.864,0,0,0,.039-.431,2.144,2.144,0,0,0-1-1.859,20.921,20.921,0,0,0-3.268-1.664,28.475,28.475,0,0,1-3.621-1.742,7.661,7.661,0,0,1-2.447-2.329,6.437,6.437,0,0,1-1.017-3.718,12.344,12.344,0,0,1,.195-1.957,7.176,7.176,0,0,1,3.543-4.971,13.243,13.243,0,0,1,7.026-1.8q5.127,0,7.672,2.271a8.359,8.359,0,0,1,2.661,6.3h-8.258a2.551,2.551,0,0,0-.49-1.918,2.083,2.083,0,0,0-1.624-.626,2.348,2.348,0,0,0-1.6.548,2.069,2.069,0,0,0-.627,1.644,2.017,2.017,0,0,0,.959,1.722,16.674,16.674,0,0,0,3.113,1.527,30,30,0,0,1,3.659,1.722,7.664,7.664,0,0,1,2.466,2.31,6.421,6.421,0,0,1,1.038,3.757,12.351,12.351,0,0,1-.2,1.957A7.627,7.627,0,0,1,120.18,192.331Z"/><path class="a" d="M156.257,187.041a20.446,20.446,0,0,1-7.462,6.3,22.14,22.14,0,0,1-10.09,2.281H124.724l6.148-35.1h13.981a18.839,18.839,0,0,1,8.354,1.71,12.242,12.242,0,0,1,5.331,4.834,14.041,14.041,0,0,1,1.834,7.239,18.713,18.713,0,0,1-.347,3.669A21.084,21.084,0,0,1,156.257,187.041Zm-9.718-2.479a10.431,10.431,0,0,0,3.619-6.594,10.879,10.879,0,0,0,.2-2.132,6.219,6.219,0,0,0-2.082-5.032,8.721,8.721,0,0,0-5.8-1.761h-3.322l-3.173,17.85H139.3A11.126,11.126,0,0,0,146.539,184.562Z"/><path class="a" d="M175.89,168.3l-1.041,5.8h11.4l-1.338,7.387H173.56l-1.091,6.346h12.842l-1.389,7.785H161.313l6.148-35.1H190.07l-1.339,7.784Z"/><path class="a" d="M220.81,195.619h-9.768l-9.469-19.585-3.422,19.585h-9.767l6.148-35.054H204.3l9.47,19.832,3.421-19.832h9.768Z"/><path class="b" d="M253.781,174.4l-1.438,8.082h-22.46l1.438-8.082Z"/><path class="a" d="M287.2,174.707a9.418,9.418,0,0,1-4.784,2.752,6.756,6.756,0,0,1,3.991,2.43,6.939,6.939,0,0,1,1.413,4.362,10.286,10.286,0,0,1-.149,1.686A10.562,10.562,0,0,1,283.411,193a15.243,15.243,0,0,1-9.123,2.5H256.935l6.148-35.1H280.04q4.76,0,7.338,1.86a6.223,6.223,0,0,1,2.578,5.379,12.31,12.31,0,0,1-.149,1.835A10.141,10.141,0,0,1,287.2,174.707Zm-9.148,9q0-2.478-3.321-2.479h-5.5l-1.14,6.445h5.5q3.868,0,4.363-3.173A6.063,6.063,0,0,0,278.056,183.706Zm1.438-12.346a5.974,5.974,0,0,0,.1-.842q0-2.331-3.223-2.331h-4.859l-1.091,6.248h4.908Q278.949,174.435,279.494,171.36Z"/><path class="a" d="M304.681,168.187l-1.042,5.8h11.4l-1.339,7.388H302.35l-1.09,6.346H314.1l-1.388,7.784H290.1l6.148-35.1h22.609l-1.339,7.784Z"/><path class="a" d="M349.6,195.506h-9.768l-9.469-19.584-3.422,19.584h-9.767l6.148-35.053h9.767l9.47,19.832,3.421-19.832h9.768Z"/><path class="b" d="M375.305,192.218a9.488,9.488,0,0,1-3.719,2.6,13.813,13.813,0,0,1-5.3.959q-4.933,0-7.692-2.368a8.243,8.243,0,0,1-2.8-6.517h8.181a2.543,2.543,0,0,0,4.051,2.349,2.2,2.2,0,0,0,.8-1.41,1.846,1.846,0,0,0,.04-.43,2.145,2.145,0,0,0-1-1.86,20.91,20.91,0,0,0-3.269-1.663,28.747,28.747,0,0,1-3.621-1.742,7.679,7.679,0,0,1-2.446-2.329,6.43,6.43,0,0,1-1.018-3.718,12.255,12.255,0,0,1,.2-1.958,7.174,7.174,0,0,1,3.543-4.97,13.232,13.232,0,0,1,7.026-1.8q5.127,0,7.672,2.27a8.363,8.363,0,0,1,2.661,6.3h-8.259a2.547,2.547,0,0,0-.489-1.918,2.083,2.083,0,0,0-1.624-.626,2.348,2.348,0,0,0-1.605.548,2.068,2.068,0,0,0-.627,1.643,2.015,2.015,0,0,0,.959,1.723,16.691,16.691,0,0,0,3.112,1.527,29.947,29.947,0,0,1,3.66,1.722,7.671,7.671,0,0,1,2.466,2.309,6.424,6.424,0,0,1,1.038,3.758,12.362,12.362,0,0,1-.2,1.957A7.619,7.619,0,0,1,375.305,192.218Z"/><path class="a" d="M411.382,186.929a20.456,20.456,0,0,1-7.462,6.3,22.139,22.139,0,0,1-10.09,2.28H379.848L386,160.4h13.982a18.839,18.839,0,0,1,8.354,1.711,12.239,12.239,0,0,1,5.33,4.834,14.025,14.025,0,0,1,1.835,7.238,18.7,18.7,0,0,1-.347,3.669A21.1,21.1,0,0,1,411.382,186.929Zm-9.718-2.479a10.443,10.443,0,0,0,3.619-6.595,10.869,10.869,0,0,0,.2-2.131,6.225,6.225,0,0,0-2.082-5.033,8.726,8.726,0,0,0-5.8-1.76h-3.322L391.1,186.78h3.322A11.127,11.127,0,0,0,401.664,184.45Z"/><path class="a" d="M431.015,168.187l-1.042,5.8h11.4l-1.339,7.388H428.684l-1.09,6.346h12.841l-1.388,7.784H416.438l6.148-35.1H445.2l-1.339,7.784Z"/><path class="a" d="M475.935,195.506h-9.768L456.7,175.922l-3.422,19.584h-9.767l6.148-35.053h9.767l9.47,19.832,3.421-19.832h9.768Z"/><path class="b" d="M508.168,174.286l-1.437,8.082h-22.46l1.437-8.082Z"/><path class="a" d="M542.329,174.707a9.423,9.423,0,0,1-4.784,2.752,6.756,6.756,0,0,1,3.991,2.43,6.939,6.939,0,0,1,1.413,4.362,10.286,10.286,0,0,1-.149,1.686A10.562,10.562,0,0,1,538.536,193a15.243,15.243,0,0,1-9.123,2.5H512.06l6.148-35.1h16.957q4.76,0,7.338,1.86a6.223,6.223,0,0,1,2.578,5.379,12.445,12.445,0,0,1-.149,1.835A10.141,10.141,0,0,1,542.329,174.707Zm-9.148,9q0-2.478-3.321-2.479h-5.5l-1.141,6.445h5.5q3.868,0,4.363-3.173A6.063,6.063,0,0,0,533.181,183.706Zm1.438-12.346a5.93,5.93,0,0,0,.1-.842q0-2.331-3.222-2.331h-4.859l-1.091,6.248h4.908Q534.074,174.435,534.619,171.36Z"/><path class="a" d="M559.806,168.187l-1.042,5.8h11.4l-1.339,7.388H557.475l-1.091,6.346h12.842l-1.388,7.784H545.229l6.148-35.1h22.609l-1.339,7.784Z"/><path class="a" d="M604.726,195.506h-9.768l-9.47-19.584-3.421,19.584H572.3l6.148-35.053h9.767l9.47,19.832,3.421-19.832h9.768Z"/><path class="b" d="M630.429,192.218a9.484,9.484,0,0,1-3.718,2.6,13.819,13.819,0,0,1-5.3.959q-4.932,0-7.692-2.368a8.245,8.245,0,0,1-2.8-6.517H619.1a2.543,2.543,0,0,0,4.051,2.349,2.2,2.2,0,0,0,.8-1.41,1.855,1.855,0,0,0,.039-.43,2.143,2.143,0,0,0-1-1.86,20.843,20.843,0,0,0-3.268-1.663,28.679,28.679,0,0,1-3.621-1.742,7.679,7.679,0,0,1-2.446-2.329,6.43,6.43,0,0,1-1.018-3.718,12.255,12.255,0,0,1,.2-1.958,7.174,7.174,0,0,1,3.543-4.97,13.231,13.231,0,0,1,7.025-1.8q5.129,0,7.672,2.27a8.36,8.36,0,0,1,2.662,6.3h-8.259a2.547,2.547,0,0,0-.489-1.918,2.083,2.083,0,0,0-1.625-.626,2.35,2.35,0,0,0-1.605.548,2.071,2.071,0,0,0-.626,1.643,2.015,2.015,0,0,0,.959,1.723,16.691,16.691,0,0,0,3.112,1.527,29.947,29.947,0,0,1,3.66,1.722,7.681,7.681,0,0,1,2.466,2.309,6.424,6.424,0,0,1,1.037,3.758,12.344,12.344,0,0,1-.195,1.957A7.612,7.612,0,0,1,630.429,192.218Z"/><path class="a" d="M666.506,186.929a20.444,20.444,0,0,1-7.461,6.3,22.142,22.142,0,0,1-10.09,2.28H634.973l6.148-35.1H655.1a18.839,18.839,0,0,1,8.354,1.711,12.239,12.239,0,0,1,5.33,4.834,14.035,14.035,0,0,1,1.835,7.238,18.7,18.7,0,0,1-.347,3.669A21.089,21.089,0,0,1,666.506,186.929Zm-9.717-2.479a10.443,10.443,0,0,0,3.619-6.595,10.869,10.869,0,0,0,.2-2.131,6.225,6.225,0,0,0-2.082-5.033,8.726,8.726,0,0,0-5.8-1.76H649.4l-3.173,17.849h3.322A11.127,11.127,0,0,0,656.789,184.45Z"/><path class="a" d="M686.14,168.187l-1.042,5.8h11.4l-1.339,7.388H683.809l-1.091,6.346H695.56l-1.388,7.784H671.563l6.148-35.1H700.32l-1.339,7.784Z"/><path class="a" d="M731.06,195.506h-9.768l-9.47-19.584L708.4,195.506h-9.767l6.148-35.053h9.767l9.47,19.832,3.421-19.832h9.768Z"/><path class="b" d="M763.293,174.286l-1.438,8.082H739.4l1.438-8.082Z"/><path class="a" d="M57.321,215.663a9.421,9.421,0,0,1-4.785,2.752,6.758,6.758,0,0,1,3.991,2.43,6.94,6.94,0,0,1,1.414,4.363,10.3,10.3,0,0,1-.149,1.686,10.564,10.564,0,0,1-4.264,7.065,15.25,15.25,0,0,1-9.123,2.5H27.052l6.148-35.1H50.156q4.76,0,7.338,1.859a6.224,6.224,0,0,1,2.578,5.38,12.307,12.307,0,0,1-.149,1.834A10.136,10.136,0,0,1,57.321,215.663Zm-9.148,9q0-2.48-3.322-2.479h-5.5l-1.141,6.445h5.5q3.867,0,4.363-3.173A6.1,6.1,0,0,0,48.173,224.663Zm1.438-12.346a5.955,5.955,0,0,0,.1-.843q0-2.329-3.223-2.33H41.628l-1.09,6.247h4.908Q49.064,215.391,49.611,212.317Z"/><path class="a" d="M74.8,209.144l-1.041,5.8h11.4l-1.339,7.387H72.467l-1.091,6.347H84.218l-1.389,7.784H60.221l6.148-35.1H88.978l-1.339,7.784Z"/><path class="a" d="M119.717,236.463H109.95l-9.47-19.585-3.421,19.585H87.292l6.148-35.054h9.767l9.47,19.833,3.421-19.833h9.767Z"/><path class="b" d="M145.421,233.175a9.484,9.484,0,0,1-3.718,2.6,13.841,13.841,0,0,1-5.3.959q-4.932,0-7.692-2.368a8.243,8.243,0,0,1-2.8-6.518h8.18a2.543,2.543,0,0,0,4.052,2.349,2.2,2.2,0,0,0,.8-1.409,1.864,1.864,0,0,0,.039-.431,2.145,2.145,0,0,0-1-1.859,20.874,20.874,0,0,0-3.268-1.664A28.622,28.622,0,0,1,131.1,223.1a7.669,7.669,0,0,1-2.446-2.329,6.433,6.433,0,0,1-1.018-3.719,12.244,12.244,0,0,1,.2-1.957,7.175,7.175,0,0,1,3.542-4.971,13.246,13.246,0,0,1,7.026-1.8q5.128,0,7.672,2.271a8.36,8.36,0,0,1,2.662,6.3H140.47a2.548,2.548,0,0,0-.489-1.918,2.084,2.084,0,0,0-1.625-.627,2.348,2.348,0,0,0-1.6.548,2.072,2.072,0,0,0-.626,1.644,2.016,2.016,0,0,0,.959,1.723,16.731,16.731,0,0,0,3.112,1.526,30.242,30.242,0,0,1,3.66,1.722,7.683,7.683,0,0,1,2.465,2.31,6.415,6.415,0,0,1,1.038,3.758,12.244,12.244,0,0,1-.2,1.957A7.624,7.624,0,0,1,145.421,233.175Z"/><path class="a" d="M181.5,227.885a20.438,20.438,0,0,1-7.462,6.3,22.137,22.137,0,0,1-10.09,2.281H149.965l6.148-35.1h13.981a18.84,18.84,0,0,1,8.355,1.71,12.239,12.239,0,0,1,5.33,4.834,14.041,14.041,0,0,1,1.834,7.239,18.706,18.706,0,0,1-.347,3.669A21.067,21.067,0,0,1,181.5,227.885Zm-9.718-2.479a10.431,10.431,0,0,0,3.619-6.594,10.877,10.877,0,0,0,.2-2.132,6.222,6.222,0,0,0-2.082-5.032,8.725,8.725,0,0,0-5.8-1.76h-3.321l-3.173,17.849h3.322A11.123,11.123,0,0,0,171.78,225.406Z"/><path class="a" d="M201.131,209.144l-1.041,5.8h11.4l-1.339,7.387H198.8l-1.091,6.347h12.842l-1.389,7.784H186.555l6.148-35.1h22.609l-1.339,7.784Z"/><path class="a" d="M246.051,236.463h-9.767l-9.47-19.585-3.421,19.585h-9.767l6.147-35.054h9.768l9.47,19.833,3.421-19.833H252.2Z"/><path class="b" d="M279.022,215.242l-1.438,8.082H255.125l1.438-8.082Z"/><path class="a" d="M312.446,215.551a9.421,9.421,0,0,1-4.785,2.752,6.761,6.761,0,0,1,3.991,2.43,6.94,6.94,0,0,1,1.413,4.363,10.2,10.2,0,0,1-.149,1.686,10.56,10.56,0,0,1-4.263,7.065,15.25,15.25,0,0,1-9.123,2.5H282.177l6.148-35.1h16.956q4.76,0,7.338,1.86a6.224,6.224,0,0,1,2.578,5.379,12.31,12.31,0,0,1-.149,1.835A10.14,10.14,0,0,1,312.446,215.551Zm-9.148,9q0-2.478-3.322-2.479h-5.5l-1.141,6.446h5.5q3.868,0,4.364-3.173A6.091,6.091,0,0,0,303.3,224.55Zm1.438-12.345a5.955,5.955,0,0,0,.1-.843q0-2.329-3.223-2.33h-4.859l-1.09,6.247h4.908Q304.189,215.279,304.736,212.205Z"/><path class="a" d="M329.922,209.032l-1.041,5.8h11.4l-1.339,7.388H327.592l-1.091,6.346h12.842l-1.389,7.785H315.346l6.148-35.1H344.1l-1.338,7.785Z"/><path class="a" d="M374.842,236.351h-9.767l-9.47-19.585-3.421,19.585h-9.768l6.148-35.054h9.767l9.471,19.832,3.421-19.832h9.767Z"/><path class="b" d="M400.546,233.062a9.474,9.474,0,0,1-3.718,2.6,13.822,13.822,0,0,1-5.3.959q-4.932,0-7.692-2.368a8.24,8.24,0,0,1-2.8-6.517h8.18a2.543,2.543,0,0,0,4.052,2.349,2.2,2.2,0,0,0,.8-1.409,1.864,1.864,0,0,0,.039-.431,2.144,2.144,0,0,0-1-1.859,20.921,20.921,0,0,0-3.268-1.664,28.612,28.612,0,0,1-3.621-1.742,7.682,7.682,0,0,1-2.447-2.329,6.437,6.437,0,0,1-1.017-3.718,12.266,12.266,0,0,1,.2-1.958,7.172,7.172,0,0,1,3.542-4.97,13.246,13.246,0,0,1,7.026-1.8q5.127,0,7.672,2.27a8.359,8.359,0,0,1,2.661,6.3H395.6a2.551,2.551,0,0,0-.49-1.918,2.083,2.083,0,0,0-1.624-.626,2.348,2.348,0,0,0-1.605.548,2.069,2.069,0,0,0-.627,1.644,2.017,2.017,0,0,0,.959,1.722,16.706,16.706,0,0,0,3.113,1.527,30,30,0,0,1,3.659,1.722,7.661,7.661,0,0,1,2.466,2.309,6.419,6.419,0,0,1,1.038,3.758,12.351,12.351,0,0,1-.2,1.957A7.619,7.619,0,0,1,400.546,233.062Z"/><path class="a" d="M436.623,227.773a20.446,20.446,0,0,1-7.462,6.3,22.137,22.137,0,0,1-10.09,2.281H405.09l6.148-35.1h13.981a18.843,18.843,0,0,1,8.355,1.711,12.239,12.239,0,0,1,5.33,4.834,14.038,14.038,0,0,1,1.834,7.239,18.713,18.713,0,0,1-.347,3.669A21.084,21.084,0,0,1,436.623,227.773Zm-9.718-2.479a10.431,10.431,0,0,0,3.619-6.594,10.877,10.877,0,0,0,.2-2.132,6.222,6.222,0,0,0-2.082-5.032,8.726,8.726,0,0,0-5.8-1.761h-3.322l-3.172,17.849h3.321A11.123,11.123,0,0,0,426.905,225.294Z"/><path class="a" d="M456.256,209.032l-1.041,5.8h11.4l-1.339,7.388H453.926l-1.091,6.346h12.842l-1.389,7.785H441.68l6.148-35.1h22.608l-1.338,7.785Z"/><path class="a" d="M501.176,236.351h-9.767l-9.47-19.585-3.422,19.585H468.75L474.9,201.3h9.767l9.471,19.832,3.421-19.832h9.767Z"/><path class="b" d="M533.41,215.13l-1.438,8.082h-22.46l1.438-8.082Z"/><path class="a" d="M567.571,215.551a9.425,9.425,0,0,1-4.785,2.752,6.761,6.761,0,0,1,3.991,2.43,6.94,6.94,0,0,1,1.413,4.363,10.305,10.305,0,0,1-.149,1.686,10.563,10.563,0,0,1-4.263,7.065,15.25,15.25,0,0,1-9.123,2.5H537.3l6.147-35.1h16.957q4.76,0,7.338,1.86a6.224,6.224,0,0,1,2.578,5.379,12.31,12.31,0,0,1-.149,1.835A10.14,10.14,0,0,1,567.571,215.551Zm-9.148,9q0-2.478-3.322-2.479h-5.5l-1.14,6.446h5.5q3.868,0,4.363-3.173A6.156,6.156,0,0,0,558.423,224.55Zm1.438-12.345a5.955,5.955,0,0,0,.1-.843q0-2.329-3.223-2.33h-4.859l-1.091,6.247H555.7Q559.314,215.279,559.861,212.205Z"/><path class="a" d="M585.047,209.032l-1.041,5.8h11.4l-1.338,7.388H582.717l-1.091,6.346h12.842l-1.389,7.785H570.47l6.148-35.1h22.609l-1.339,7.785Z"/><path class="a" d="M629.967,236.351H620.2l-9.469-19.585-3.422,19.585h-9.767l6.148-35.054h9.767l9.471,19.832,3.42-19.832h9.768Z"/><path class="b" d="M655.671,233.062a9.478,9.478,0,0,1-3.719,2.6,13.813,13.813,0,0,1-5.3.959q-4.932,0-7.692-2.368a8.241,8.241,0,0,1-2.8-6.517h8.181a2.248,2.248,0,0,0,2.427,2.858,2.544,2.544,0,0,0,1.624-.509,2.2,2.2,0,0,0,.8-1.409,1.864,1.864,0,0,0,.039-.431,2.144,2.144,0,0,0-1-1.859,20.921,20.921,0,0,0-3.268-1.664,28.7,28.7,0,0,1-3.622-1.742,7.679,7.679,0,0,1-2.446-2.329,6.43,6.43,0,0,1-1.017-3.718,12.366,12.366,0,0,1,.2-1.958,7.177,7.177,0,0,1,3.543-4.97,13.243,13.243,0,0,1,7.026-1.8q5.127,0,7.672,2.27a8.363,8.363,0,0,1,2.661,6.3h-8.259a2.547,2.547,0,0,0-.489-1.918,2.083,2.083,0,0,0-1.624-.626,2.348,2.348,0,0,0-1.605.548,2.069,2.069,0,0,0-.627,1.644,2.017,2.017,0,0,0,.959,1.722,16.674,16.674,0,0,0,3.113,1.527,30,30,0,0,1,3.659,1.722,7.671,7.671,0,0,1,2.466,2.309,6.426,6.426,0,0,1,1.038,3.758,12.351,12.351,0,0,1-.2,1.957A7.619,7.619,0,0,1,655.671,233.062Z"/><path class="a" d="M691.748,227.773a20.446,20.446,0,0,1-7.462,6.3,22.14,22.14,0,0,1-10.09,2.281H660.215l6.148-35.1h13.981a18.839,18.839,0,0,1,8.354,1.711,12.242,12.242,0,0,1,5.331,4.834,14.038,14.038,0,0,1,1.834,7.239,18.713,18.713,0,0,1-.347,3.669A21.1,21.1,0,0,1,691.748,227.773Zm-9.718-2.479a10.431,10.431,0,0,0,3.619-6.594,10.879,10.879,0,0,0,.2-2.132,6.219,6.219,0,0,0-2.082-5.032,8.721,8.721,0,0,0-5.8-1.761h-3.322l-3.173,17.849h3.322A11.125,11.125,0,0,0,682.03,225.294Z"/><path class="a" d="M711.381,209.032l-1.041,5.8h11.4l-1.338,7.388H709.051l-1.091,6.346H720.8l-1.388,7.785H696.8l6.148-35.1h22.609l-1.339,7.785Z"/><path class="a" d="M756.3,236.351h-9.768l-9.469-19.585-3.422,19.585h-9.767l6.148-35.054h9.767l9.47,19.832,3.421-19.832h9.768Z"/><path class="b" d="M23.9,215.516,22.46,223.6H0l1.438-8.082Z"/><rect class="c" width="762.449" height="241.351"/></svg>