<svg xmlns="http://www.w3.org/2000/svg" viewBox="0 0 459.544 140.875"><defs><style>.a{fill:#231f20;}.b{font-size:95px;fill:#ff852e;font-family:Poppins-ExtraBoldItalic, Poppins;font-weight:800;font-style:italic;}.c{fill:#e6e8e6;font-size:75px;letter-spacing:0em;}</style></defs><title>Asset 1</title><path class="a" d="M15,97.26A15,15,0,0,1,.225,79.672l11.78-67.26A15,15,0,0,1,26.78,0H59.27C68.536,0,76.218,2.152,82.1,6.4c7.2,5.195,11.167,13.175,11.167,22.474a38.907,38.907,0,0,1-.451,5.74q-.043.293-.1.582a34.879,34.879,0,0,1-5.863,13.941A29.159,29.159,0,0,1,89.185,60.7a34.835,34.835,0,0,1-.489,5.7l-.018.107a35.3,35.3,0,0,1-14.173,23.13C67.486,94.691,58.652,97.26,48.25,97.26Z"/><path class="a" d="M78.554,97.26A15,15,0,0,1,63.779,79.672l11.78-67.26A15,15,0,0,1,90.334,0h43.32a15,15,0,0,1,14.783,17.542l-2.565,14.915a14.964,14.964,0,0,1-4.534,8.41A15.014,15.014,0,0,1,141.1,43.7l-2.565,14.155a14.958,14.958,0,0,1-.7,2.552,14.994,14.994,0,0,1,1.466,9.568l-2.66,14.915A15,15,0,0,1,121.874,97.26Z"/><path class="a" d="M173.838,97.26a15,15,0,0,1-12.349-6.485,15,15,0,0,1-12.351,6.485H130.423a15,15,0,0,1-14.774-17.591L127.429,12.5A15,15,0,0,1,142.2.1h18.715a15,15,0,0,1,12.35,6.485A15,15,0,0,1,185.618.1h18.715a15,15,0,0,1,14.774,17.591L207.328,84.851A15,15,0,0,1,192.554,97.26Z"/><path class="a" d="M224.517,97.784c-9.956,0-18.2-2.743-24.506-8.154-6.841-5.87-10.5-14.077-10.594-23.732a15,15,0,0,1,4.345-10.7c.168-.17.341-.336.517-.5a29.058,29.058,0,0,1-1.562-9.645,37.84,37.84,0,0,1,.58-6.226c.015-.085.03-.17.046-.256a28.6,28.6,0,0,1,13.734-19.6,40.231,40.231,0,0,1,21.265-5.639c10.31,0,18.615,2.744,24.683,8.154,4.427,3.951,9.77,11.115,10.111,22.836A15,15,0,0,1,258.9,55.211l-.054.056a29.007,29.007,0,0,1,1.67,9.968,37.943,37.943,0,0,1-.579,6.216l-.024.136a29.481,29.481,0,0,1-6.65,14.053,33.1,33.1,0,0,1-12.872,9.177A41.483,41.483,0,0,1,224.517,97.784Z"/><path class="a" d="M248.655,97.26A15,15,0,0,1,233.88,79.672l11.779-67.259A15,15,0,0,1,260.435,0h26.79a51.022,51.022,0,0,1,22.6,4.8,38.307,38.307,0,0,1,16.553,15.138A41.8,41.8,0,0,1,331.96,41.41a51.213,51.213,0,0,1-.908,9.726,55.418,55.418,0,0,1-9.852,23.52,54.207,54.207,0,0,1-19.687,16.636,57.449,57.449,0,0,1-26.068,5.968Z"/><path class="a" d="M318.765,97.26a15,15,0,0,1-14.776-17.588l11.78-67.259A15,15,0,0,1,330.544,0h43.32a15,15,0,0,1,14.783,17.542l-2.564,14.915a14.964,14.964,0,0,1-4.534,8.41,15.025,15.025,0,0,1-.239,2.838l-2.566,14.154a15.06,15.06,0,0,1-.7,2.553,15,15,0,0,1,1.465,9.567l-2.66,14.915A15,15,0,0,1,362.084,97.26Z"/><path class="a" d="M414.049,97.26a15,15,0,0,1-12.35-6.486,15,15,0,0,1-12.35,6.486H370.634a15,15,0,0,1-14.775-17.591L367.639,12.5A15,15,0,0,1,382.413.1h18.716a15,15,0,0,1,12.349,6.484A15,15,0,0,1,425.828.1h18.716a15,15,0,0,1,14.774,17.591l-11.78,67.166A15,15,0,0,1,432.764,97.26Z"/><text class="b" transform="translate(15.76 82.26)">BEN<tspan class="c" x="187.907" y="0">S</tspan><tspan x="233.655" y="0">DEN</tspan></text></svg>